# xmcd
#
# Track frame offsets: 
#        150
#        16147
#        30574
#        46932
#        63053
#        83845
#        97086
#        128978
#        141073
#        158294
#        176870
#        195657
#        206306
#        217880
#
# Disc length: 3083 seconds
#
# Revision: 0
# Processed by: cddbd v1.5.2PL0 Copyright (c) Steve Scherf et al.
# Submitted via: ExactAudioCopyFreeDBPlugin 1.0
#
DISCID=af0c090e
DTITLE=The Winklepickers - Haddocks And French Kisses
DYEAR=2011
DGENRE=R&B
TTITLE0=I've Been Drinking Muddy Waters
TTITLE1=Nadine
TTITLE2=She Does It Right
TTITLE3=Willie And The Hand Jive
TTITLE4=Heart Of The City
TTITLE5=You're Humbuggin' Me
TTITLE6=Scratch My Back
TTITLE7=I Believe I'm In Love With You
TTITLE8=Long Distance Call
TTITLE9=Cut My Wings
TTITLE10=Riot In Cell Block #9
TTITLE11=You Ain't Nothing But Fine
TTITLE12=The Crawl
TTITLE13=My Buddy Buddy Friends
EXTD=
EXTT0=
EXTT1=
EXTT2=
EXTT3=
EXTT4=
EXTT5=
EXTT6=
EXTT7=
EXTT8=
EXTT9=
EXTT10=
EXTT11=
EXTT12=
EXTT13=
PLAYORDER=
